<svg fill="none" height="78" width="367" xmlns="http://www.w3.org/2000/svg"><path d="m31.496 33.172c-2.045.272-3.664 1.738-4.23 4.016 2.707.673 5.11-.525 6.125-2.957.12-.288.22-.592.302-.915a5.755 5.755 0 0 0 -2.194-.148zm-7.031 2.819c-.93.43-1.667 1.034-2.192 1.748.58 1.562.535 3.36-.219 5.16l-.05.115c.07-.036.136-.068.203-.106 2.579-1.399 3.52-4.193 2.258-6.917zm23.723-6.967a5.83 5.83 0 0 0 -1.768 1.161c.057.061.118.122.178.18 2.128 2.103 5.101 2.157 7.308.073-1.612-1.744-3.772-2.224-5.718-1.418zm-4.404-13.187c-2.233.17-3.896 1.434-4.56 3.293a5.799 5.799 0 0 0 -.303 2.436c.163-.013.322-.032.474-.058 2.83-.448 4.627-2.714 4.389-5.671zm-15.767 7.259c.054.912-.073 1.87-.395 2.849a5.816 5.816 0 0 0 1.772-1.329c1.383-1.552 1.67-3.735.623-5.847-1.113.563-1.94 1.37-2.442 2.314.25.627.404 1.302.445 2.007zm-9.013 4.599a6.307 6.307 0 0 1 -1.5-.265c-1.104.576-2.004 1.584-2.529 2.963 2.191.836 4.322.337 5.718-1.206a5.894 5.894 0 0 0 1.135-1.898 7.483 7.483 0 0 1 -2.82.406zm-5.594 13.84a6.245 6.245 0 0 1 -2.353-.048c-.836.71-1.475 1.715-1.816 2.954 2.366.65 4.532-.083 5.836-1.828.439-.588.779-1.292.995-2.093-.871.528-1.768.868-2.658 1.012l-.003.003zm48.844 2.964c.33-.09.664-.154.995-.192 1.03-1.018 1.596-2.484 1.51-4.193-2.359.131-4.118 1.466-4.78 3.46a5.942 5.942 0 0 0 -.276 2.208c.814-.618 1.676-1.046 2.547-1.283zm-3.947-9.845c-.353 1.837-1.466 3.399-3.186 4.388.324.038.639.054.947.044 2.653-.076 4.653-1.923 5.012-4.74-1.011-.125-1.95-.01-2.773.308zm-1.739-12.813c-1.34-.166-2.55.09-3.533.679-.23 1.239-.83 2.42-1.797 3.421a7.168 7.168 0 0 1 -.646.592c.331.042.652.058.967.048 2.652-.076 4.653-1.923 5.012-4.74zm-19.24-6.781a6.345 6.345 0 0 1 -.245-1.745c-.877-.823-2.076-1.335-3.488-1.415-.124 2.375 1.008 4.28 2.906 5.156a5.738 5.738 0 0 0 2.105.51c-.607-.798-1.036-1.643-1.278-2.5v-.007zm-3.193 30.319a5.902 5.902 0 0 0 -1.657-1.485c.09 1.024-.003 1.987-.264 2.858a6.625 6.625 0 0 1 -.48 1.178c.306 1.331 1.167 2.532 2.528 3.377 1.231-2.03 1.133-4.248-.124-5.925z" fill="#8ecb84"/><path d="m41.071 22.12c-1.084 3.722.62 7.09 4.144 8.376.175.064.356.122.537.176a8.24 8.24 0 0 0 .143-.583c.767-3.668-1.145-6.903-4.824-7.97zm-2.773-1.162c-1.034-2.68-3.533-4.315-6.694-4.148.184 3.911 2.938 6.552 6.745 6.561.15 0 .302-.003.455-.013a7.707 7.707 0 0 0 -.506-2.4zm-16.318 22.065.014.007s.003-.01.01-.016c-.007.003-.014.01-.02.01h-.003zm.29-5.287c-.6-1.633-1.88-3-3.736-3.831-1.61 3.59-.325 7.22 3.11 8.958.06.032.127.067.194.096-.016-.025-.026-.054-.038-.08-.786-1.856-.576-3.719.467-5.14zm-3.313 5.29h-.004c-2.954.164-5.317 2.145-6.06 5.333 3.793.915 7.088-1.018 8.147-4.715.038-.134.076-.275.108-.416a7.792 7.792 0 0 0 -2.195-.202zm28.636-7.652c-3.43 1.84-4.665 5.466-3.065 8.936.06.131.127.262.194.394.299-.157.582-.33.849-.513 2.913-2.013 3.756-5.514 2.026-8.814zm-20.333-10.326c-.445-1.398-.315-2.787.315-3.965-.706-1.773-2.207-3.185-4.335-3.89-1.116 3.467.197 6.716 3.234 8.268.36.186.741.343 1.145.477a6.405 6.405 0 0 1 -.362-.893zm-5.909 1.085c-1.555-3.047-4.789-4.359-8.227-3.22.773 2.337 2.382 3.918 4.376 4.52 1.005-.522 2.178-.688 3.406-.426.305.064.61.157.922.275v.007h.01a7.993 7.993 0 0 0 -.48-1.156zm-5.988 13.357c-2.178-2.634-5.62-3.201-8.73-1.335 1.091 1.824 2.669 2.96 4.421 3.332 1.078-.916 2.49-1.344 4.03-1.165.324.035.651.102.985.192v.006c.006 0 .01-.006.016-.01a8.329 8.329 0 0 0 -.719-1.02zm47.889 4.817a5.159 5.159 0 0 1 -2.585 1.366 6.154 6.154 0 0 1 -.96.125c.254.34.521.65.81.932 2.433 2.397 5.912 2.611 8.819.435-1.587-2.129-3.823-3.114-6.084-2.861zm-7.486-7.407a4.854 4.854 0 0 1 2.541-2.246c.22-1.143.146-2.388-.257-3.669-2.888.938-4.637 3.179-4.809 5.87-.06.913.064 1.873.382 2.852a8.03 8.03 0 0 0 1.151-.473c.121-.061.236-.128.35-.196h-.02a5.887 5.887 0 0 1 .666-2.138zm-4.512-12.505a4.87 4.87 0 0 1 1.78-1.875c.334-1.799-.114-3.729-1.402-5.454-2.42 1.844-3.339 4.535-2.62 7.137.242.884.67 1.748 1.29 2.567.1-.076.192-.157.287-.237a5.89 5.89 0 0 1 .665-2.138zm-14.171-11.08c.875.822 1.434 1.952 1.565 3.28.032.314.038.637.022.97.321-.253.614-.515.881-.797 2.331-2.458 2.496-5.934.318-8.805-1.844 1.43-2.789 3.36-2.783 5.355zm-5.053 31.443a6.2 6.2 0 0 1 .442-.867c-.426.038-.83.102-1.221.198-3.307.81-5.33 3.668-5.034 7.3 2.538-.22 4.496-1.52 5.514-3.46-.232-1.014-.143-2.105.299-3.171z" fill="#46a451"/><g fill="#47674d"><path d="m22.05 42.898a1.863 1.863 0 0 1 -.05.116c-.006.003-.013.01-.02.01-.03.015-.06.031-.091.044l-.048-.109c-.016-.025-.026-.054-.038-.08-.786-1.856-.576-3.719.467-5.14.58 1.562.535 3.36-.22 5.16zm5.21-17.85c.095.301.216.596.362.893.325-.98.452-1.936.395-2.848a6.399 6.399 0 0 0 -.445-2.01c-.63 1.178-.76 2.567-.315 3.965zm-6.354 1.959c-1.224-.262-2.401-.1-3.406.426.48.144.983.237 1.501.265a7.484 7.484 0 0 0 2.82-.406v-.006a6.303 6.303 0 0 0 -.921-.276zm-5.823 13.315c-1.539-.18-2.948.25-4.029 1.165.76.16 1.552.18 2.353.048.89-.147 1.787-.483 2.659-1.015v-.006a6.155 6.155 0 0 0 -.986-.192zm48.169 3.985c-.334.038-.664.099-.995.192a7.533 7.533 0 0 0 -2.547 1.283v.013c.334-.02.652-.06.96-.125 1.03-.218 1.908-.694 2.585-1.367zm-4.945-9.653a4.865 4.865 0 0 0 -2.54 2.246 5.987 5.987 0 0 0 -.665 2.142h.019c1.72-.99 2.833-2.551 3.186-4.389zm-5.272-12.134a4.906 4.906 0 0 0 -1.781 1.872 5.99 5.99 0 0 0 -.665 2.141c.23-.188.449-.384.646-.592.966-1.002 1.568-2.182 1.796-3.421zm-14.387-5.928c-.13-1.325-.69-2.458-1.565-3.28 0 .579.08 1.165.245 1.744.242.86.671 1.706 1.278 2.503.02 0 .039.003.058.006l.006-.003c.016-.333.01-.656-.022-.97zm-6.433 30.16a7.58 7.58 0 0 0 .263-2.858s-.003 0-.006-.003a6.2 6.2 0 0 0 -.442.867c-.442 1.066-.531 2.157-.299 3.172a6.68 6.68 0 0 0 .48-1.175z"/><path d="m38.75 0c-21.4 0-38.75 17.46-38.75 39s17.348 39 38.75 39 38.75-17.46 38.75-39-17.349-39-38.75-39zm12.962 71.903c-.566.198-3.855 1.226-6.717-.602-2.7-1.725-4.242-5.403-4.585-10.93l-.252-10.975.013-.016v-.01c2.868-4.09 7.636-3.63 10.978-2.925.544.115 1.027.227 1.475.333 2.363.547 3.791.88 7.677.044l.045-.01c.05-.009.101-.018.152-.031l.058-.013-.042-.038a8.235 8.235 0 0 1 -.81-.932v-.105l-.297.099c-1.399.483-3.316 1.142-7.161-.586a12.6 12.6 0 0 0 -2.977-.906c1.552-1.136 4.096-3.623 5.168-4.695.165-.163.305-.304.417-.416l-.083.048c-.363.185-.744.34-1.151.474-.038-.122-.077-.244-.108-.365a6.82 6.82 0 0 1 -.153.17c-1.269 1.376-4.198 3.546-6.17 4.573a16.63 16.63 0 0 0 -1.535.035c-.029.02-.055.045-.086.064a7.99 7.99 0 0 1 -.85.512c-.066-.13-.133-.262-.193-.393-.01-.023-.016-.045-.026-.064-.035.006-.07.01-.102.012-1.666.247-3.212.75-4.325 1.393l-.248-10.806c1.724-.691 4.402-2.368 6.765-4.25l.14-.112c-.045-.042-.09-.077-.134-.119a4.777 4.777 0 0 1 -.178-.179 5.831 5.831 0 0 1 1.768-1.162c.137-.057.277-.105.416-.15l.27-.247-.04.017a15.237 15.237 0 0 0 1.43-1.575l.134-.173.067-.09c.063-.09.127-.176.184-.262-.022 0-.041 0-.063-.007-.096.08-.188.16-.286.237a7.662 7.662 0 0 1 -.36-.521l-.01.016-.034.054c-.875 1.229-2.28 2.5-3.976 3.6-.009.058-.015.116-.028.174a6.71 6.71 0 0 1 -.143.582 8.826 8.826 0 0 1 -.538-.176c-.047-.02-.092-.042-.14-.058-.015.01-.028.02-.044.026-1.765 1.024-3.616 1.738-5.257 2.036l-.254-11.017c-.041.006-.083.02-.124.026a5.8 5.8 0 0 1 -.474.057c-.07-.883.038-1.703.302-2.435.067-.186.146-.365.229-.535l-.038-1.7c-.23.23-.474.452-.744.663l-.007.003c-.019 0-.038-.003-.057-.006-.099-.007-.19-.02-.286-.029l-.076 3.3c.016.042.035.08.05.122.287.73.458 1.536.506 2.403-.152.01-.305.013-.455.013-.054 0-.105-.006-.159-.006l-.283 12.316c-1.418-1.652-3.103-2.862-5.272-3.764-.713-1.78-3.165-4.763-4.446-6.293a6.134 6.134 0 0 1 -.57.324 9.031 9.031 0 0 1 -.47-.177c.02.096.064.196.134.273 1.79 1.987 3.09 3.773 3.873 5.319-.413-.14-.843-.278-1.294-.422-2.678-.858-5.715-1.834-8.17-4.033.048.124.099.25.143.38h-.01c-.13.346-.283.666-.457.964 2.967 2.81 4.868 3.377 6.706 3.918.512.15.996.29 1.501.483.427.16.913.371 1.419.614.162-.038.327-.073.496-.096a5.755 5.755 0 0 1 2.194.148 5.93 5.93 0 0 1 -.302.915c-.041.096-.086.186-.13.279l.019.012c1.567.986 3.555 2.52 4.557 4.417l-.137 5.979c-3.38-2.43-6.56-2.39-11.404-2.116-1.138.068-2.957.058-3.972.036l-.114.067c-.064.038-.134.07-.204.105-.003.007-.006.01-.01.016a.024.024 0 0 1 -.012-.006c-.032.016-.06.032-.092.045l-.048-.109a1.823 1.823 0 0 1 -.194-.096 1.447 1.447 0 0 1 -.095-.054c-2.223-.215-3.823-.874-5.492-2.254a6.585 6.585 0 0 1 -.414 1.114c.837.567 1.724 1.04 2.678 1.424.207-.032.416-.054.63-.067h.003a7.792 7.792 0 0 1 2.194.202c-.032.14-.07.282-.108.416-.026.093-.06.182-.092.272 1.768.403 3.52.547 5.164.66.458.031 1.18.057 1.88.083a95.7 95.7 0 0 1 1.332.054l-.159.07h.312a6.917 6.917 0 0 1 1.771-.697 7.845 7.845 0 0 1 1.221-.199s.003 0 .006.003c.681.416 1.234.919 1.657 1.486.042.057.08.115.121.172 1.32.426 2.436 1.028 3.38 1.825l-.298 13.058c-.344 5.522-1.886 9.196-4.59 10.927-3.15 2.017-6.824.599-6.859.583-13.057-5.166-22.299-17.969-22.299-32.944 0-19.544 15.742-35.387 35.16-35.387 19.417 0 35.159 15.843 35.159 35.387 0 14.937-9.194 27.71-22.197 32.902zm56.516-49.985c-1.198-2.394-3.176-3.591-5.93-3.591-1.002 0-1.928.18-2.777.54a6.46 6.46 0 0 0 -2.2 1.512 7.014 7.014 0 0 0 -1.45 2.304c-.35.89-.525 1.866-.525 2.925 0 1.06.168 2.062.509 2.951.34.89.817 1.658 1.434 2.305a6.34 6.34 0 0 0 2.188 1.495c.839.349 1.762.524 2.763.524 2.986 0 5.038-1.286 6.144-3.863l2.764 1.082c-.805 1.729-1.969 3.092-3.489 4.09-1.52 1-3.336 1.498-5.447 1.498-1.415 0-2.72-.246-3.918-.742a9.228 9.228 0 0 1 -3.107-2.08c-.871-.89-1.555-1.953-2.055-3.188-.496-1.233-.744-2.59-.744-4.065 0-1.476.248-2.778.744-4.01a9.575 9.575 0 0 1 2.068-3.188 9.52 9.52 0 0 1 3.145-2.094c1.218-.502 2.531-.755 3.943-.755 2.058 0 3.81.477 5.26 1.43 1.45.954 2.595 2.241 3.434 3.864l-2.763 1.053zm6.094-6.618h2.843v8.698c.982-1.568 2.506-2.352 4.563-2.352 1.647 0 2.948.509 3.905 1.527s1.434 2.4 1.434 4.145v8.104h-2.843v-7.634c0-1.136-.273-2.007-.817-2.612-.547-.605-1.329-.905-2.347-.905-.553 0-1.075.096-1.555.284-.483.19-.893.461-1.234.813-.34.353-.607.762-.804 1.233-.197.47-.296.992-.296 1.571v7.256h-2.843v-20.122l-.006-.007zm23.119 20.39c-1.059 0-2.029-.175-2.916-.528a6.85 6.85 0 0 1 -2.287-1.46 6.663 6.663 0 0 1 -1.491-2.214c-.36-.854-.538-1.796-.538-2.823s.178-1.946.538-2.81a6.53 6.53 0 0 1 1.507-2.228 7.006 7.006 0 0 1 2.299-1.46c.888-.351 1.851-.527 2.891-.527s2.029.172 2.916.512a6.81 6.81 0 0 1 2.3 1.443 6.52 6.52 0 0 1 1.504 2.215c.359.855.537 1.805.537 2.849 0 1.043-.178 1.94-.537 2.794a6.773 6.773 0 0 1 -1.504 2.228 6.879 6.879 0 0 1 -2.3 1.472c-.887.352-1.86.528-2.916.528l-.003.01zm0-2.62c.642 0 1.224-.113 1.752-.337.525-.224.98-.531 1.364-.918.385-.388.684-.852.897-1.393.213-.54.321-1.126.321-1.754 0-1.315-.397-2.378-1.189-3.188-.795-.81-1.841-1.216-3.142-1.216a4.55 4.55 0 0 0 -1.727.323 3.952 3.952 0 0 0 -1.364.919 4.247 4.247 0 0 0 -.897 1.392 4.713 4.713 0 0 0 -.321 1.77c0 .65.108 1.216.321 1.754.213.541.512 1.005.897 1.392a4.27 4.27 0 0 0 3.091 1.255h-.003zm10.637-17.77h2.843v20.122h-2.843v-20.123zm20.235 6.618v13.504h-2.763v-2.186a5.164 5.164 0 0 1 -1.934 1.824c-.788.422-1.691.634-2.709.634-.967 0-1.848-.173-2.643-.512a5.968 5.968 0 0 1 -2.054-1.444 6.665 6.665 0 0 1 -1.342-2.227c-.321-.865-.483-1.809-.483-2.836 0-1.028.162-1.969.483-2.823a6.585 6.585 0 0 1 1.355-2.215 6.253 6.253 0 0 1 2.079-1.46c.805-.352 1.692-.528 2.656-.528 1.021 0 1.917.211 2.697.628a4.961 4.961 0 0 1 1.892 1.805v-2.164zm-6.964 11.154c.607 0 1.164-.108 1.673-.326a3.926 3.926 0 0 0 1.323-.922 4.43 4.43 0 0 0 .884-1.395 4.73 4.73 0 0 0 .321-1.773c0-.65-.102-1.214-.309-1.748a4.237 4.237 0 0 0 -.868-1.396 3.947 3.947 0 0 0 -1.323-.921 4.201 4.201 0 0 0 -1.672-.327c-.608 0-1.133.109-1.632.327a3.815 3.815 0 0 0 -1.297.921 4.145 4.145 0 0 0 -.843 1.396 5.003 5.003 0 0 0 -.293 1.747c0 .634.099 1.242.293 1.774.197.534.474.998.83 1.395s.785.704 1.285.922a4.035 4.035 0 0 0 1.631.326zm11.099-11.154h2.763v2.24c.967-1.673 2.506-2.512 4.614-2.512 1.629 0 2.92.506 3.877 1.514s1.434 2.394 1.434 4.16v8.105h-2.843v-7.618c0-1.133-.267-1.994-.804-2.58-.538-.585-1.317-.876-2.335-.876-1.179 0-2.121.355-2.817 1.065-.697.71-1.046 1.636-1.046 2.769v7.237h-2.843zm29.517 0v13.155c0 2.051-.585 3.636-1.758 4.753-1.174 1.117-2.786 1.674-4.844 1.674-1.698 0-3.116-.42-4.251-1.255-1.136-.838-1.858-2.004-2.16-3.498l2.738-.352c.178.81.586 1.453 1.222 1.93.636.476 1.434.717 2.4.717 1.253 0 2.217-.343 2.898-1.021.68-.682 1.02-1.658 1.02-2.932v-2.34a4.976 4.976 0 0 1 -1.946 1.75c-.795.4-1.714.603-2.751.603-.947 0-1.806-.157-2.576-.474a5.286 5.286 0 0 1 -1.958-1.364c-.538-.595-.948-1.306-1.234-2.134-.287-.83-.43-1.754-.43-2.782 0-1.027.153-1.895.455-2.714a6.145 6.145 0 0 1 1.301-2.119 5.786 5.786 0 0 1 2.013-1.376c.779-.323 1.631-.487 2.563-.487 1.021 0 1.914.196 2.684.59.77.39 1.396.953 1.879 1.683v-2h2.738zm-6.91 10.668c.588 0 1.135-.1 1.644-.298a3.807 3.807 0 0 0 1.323-.854c.375-.372.668-.817.884-1.332.213-.515.321-1.1.321-1.754a4.55 4.55 0 0 0 -.308-1.7 3.778 3.778 0 0 0 -.868-1.318 4.158 4.158 0 0 0 -1.323-.855 4.38 4.38 0 0 0 -1.673-.313c-1.177 0-2.105.384-2.783 1.155-.677.771-1.017 1.78-1.017 3.031 0 1.252.33 2.337.989 3.098.658.762 1.596 1.143 2.808 1.143zm12.704-13.126c-.537 0-.979-.17-1.329-.512-.35-.343-.525-.784-.525-1.325s.175-.96.525-1.31c.35-.348.792-.527 1.329-.527.538 0 .977.173 1.317.512.34.342.509.784.509 1.322 0 .537-.175.96-.525 1.309a1.76 1.76 0 0 1 -1.301.528zm-1.421 2.458h2.843v13.504h-2.843zm13.538 13.772c-1.059 0-2.029-.175-2.917-.528a6.846 6.846 0 0 1 -2.286-1.46 6.663 6.663 0 0 1 -1.491-2.214c-.36-.854-.538-1.796-.538-2.823s.178-1.946.538-2.81a6.517 6.517 0 0 1 1.507-2.228 6.996 6.996 0 0 1 2.299-1.46c.887-.351 1.851-.527 2.891-.527s2.029.172 2.916.512a6.806 6.806 0 0 1 2.299 1.443 6.507 6.507 0 0 1 1.504 2.215c.36.855.538 1.805.538 2.849 0 1.043-.178 1.94-.538 2.794a6.742 6.742 0 0 1 -1.504 2.228 6.874 6.874 0 0 1 -2.299 1.472c-.887.352-1.86.528-2.916.528l-.003.01zm0-2.62c.642 0 1.224-.113 1.752-.337a4.259 4.259 0 0 0 1.364-.918c.385-.388.684-.852.897-1.393.213-.54.321-1.126.321-1.754 0-1.315-.397-2.378-1.189-3.188-.795-.81-1.842-1.216-3.142-1.216a4.55 4.55 0 0 0 -1.727.323 3.933 3.933 0 0 0 -1.364.919 4.247 4.247 0 0 0 -.897 1.392 4.713 4.713 0 0 0 -.321 1.77c0 .65.108 1.216.321 1.754.213.541.512 1.005.897 1.392.385.388.839.695 1.364.92.525.223 1.1.335 1.727.335h-.003zm16.597 2.62c-.983 0-1.893-.175-2.726-.528a6.549 6.549 0 0 1 -2.169-1.472 6.668 6.668 0 0 1 -1.434-2.256 7.731 7.731 0 0 1 -.515-2.849c0-1.024.175-1.908.528-2.756a6.635 6.635 0 0 1 1.475-2.202 6.931 6.931 0 0 1 2.223-1.46c.849-.351 1.784-.527 2.805-.527 1.307 0 2.474.307 3.502.921 1.03.615 1.847 1.486 2.455 2.615l-2.602 1.053c-.359-.63-.817-1.117-1.383-1.46-.563-.342-1.221-.511-1.972-.511-.607 0-1.164.109-1.663.326a3.854 3.854 0 0 0 -1.288.893c-.359.381-.639.832-.846 1.354a4.6 4.6 0 0 0 -.308 1.706c0 .65.098 1.245.295 1.79a4.43 4.43 0 0 0 .818 1.407c.35.397.763.705 1.246.922a3.747 3.747 0 0 0 1.555.327c1.718 0 2.952-.71 3.705-2.135l2.576 1.082c-1.253 2.503-3.345 3.754-6.281 3.754l.004.007zm22.111-13.772v13.504h-2.764v-2.186a5.154 5.154 0 0 1 -1.933 1.824c-.789.422-1.692.634-2.71.634-.966 0-1.847-.173-2.642-.512a5.981 5.981 0 0 1 -2.055-1.444 6.698 6.698 0 0 1 -1.342-2.227c-.321-.865-.483-1.809-.483-2.836 0-1.028.162-1.969.483-2.823a6.6 6.6 0 0 1 1.355-2.215 6.247 6.247 0 0 1 2.08-1.46c.804-.352 1.692-.528 2.655-.528 1.021 0 1.918.211 2.697.628a4.954 4.954 0 0 1 1.892 1.805v-2.164zm-6.965 11.154c.608 0 1.164-.108 1.673-.326a3.916 3.916 0 0 0 1.323-.922c.375-.397.668-.86.884-1.395a4.73 4.73 0 0 0 .321-1.773c0-.65-.101-1.214-.308-1.748a4.253 4.253 0 0 0 -.868-1.396 3.967 3.967 0 0 0 -1.323-.921 4.21 4.21 0 0 0 -1.673-.327c-.607 0-1.132.109-1.631.327-.5.217-.932.524-1.298.921a4.162 4.162 0 0 0 -.843 1.396 5.003 5.003 0 0 0 -.292 1.747c0 .634.098 1.242.292 1.774a4.3 4.3 0 0 0 .83 1.395c.357.397.786.704 1.285.922a4.037 4.037 0 0 0 1.632.326zm11.099-11.154h2.764v2.89c.858-2.051 2.423-3.079 4.696-3.079.163 0 .306.004.43.013.124.01.232.023.321.042l-.188 2.916h-.537c-1.628 0-2.808.406-3.543 1.216-.734.81-1.1 2.16-1.1 4.052v5.457h-2.843zm16.101 13.772c-.983 0-1.892-.175-2.725-.528a6.529 6.529 0 0 1 -2.169-1.472 6.67 6.67 0 0 1 -1.435-2.256 7.731 7.731 0 0 1 -.515-2.849c0-1.024.175-1.908.528-2.756a6.668 6.668 0 0 1 1.476-2.202 6.931 6.931 0 0 1 2.223-1.46c.849-.351 1.784-.527 2.805-.527 1.307 0 2.474.307 3.501.921 1.03.615 1.847 1.486 2.455 2.615l-2.602 1.053c-.359-.63-.817-1.117-1.383-1.46-.563-.342-1.221-.511-1.971-.511-.608 0-1.164.109-1.664.326a3.864 3.864 0 0 0 -1.288.893c-.359.381-.639.832-.846 1.354a4.62 4.62 0 0 0 -.308 1.706c0 .65.099 1.245.296 1.79.197.54.47 1.01.817 1.407.35.397.763.705 1.247.922a3.74 3.74 0 0 0 1.555.327c1.717 0 2.951-.71 3.705-2.135l2.575 1.082c-1.253 2.503-3.345 3.754-6.28 3.754l.003.007zm10.599-16.23c-.537 0-.979-.17-1.329-.512-.35-.343-.522-.784-.522-1.325s.175-.96.522-1.31c.35-.351.792-.527 1.329-.527.538 0 .976.173 1.317.512.34.342.508.784.508 1.322 0 .537-.174.96-.521 1.309a1.767 1.767 0 0 1 -1.301.528zm-1.421 2.458h2.843v13.504h-2.843zm7.056 0h2.764v2.24c.967-1.673 2.506-2.512 4.617-2.512 1.629 0 2.92.506 3.877 1.514s1.434 2.394 1.434 4.16v8.105h-2.843v-7.618c0-1.133-.267-1.994-.804-2.58-.538-.585-1.317-.876-2.335-.876-1.18 0-2.121.355-2.817 1.065-.697.71-1.046 1.636-1.046 2.769v7.237h-2.844v-13.504zm23.066 13.772c-1.059 0-2.029-.175-2.917-.528a6.846 6.846 0 0 1 -2.286-1.46 6.663 6.663 0 0 1 -1.491-2.214c-.36-.854-.538-1.796-.538-2.823s.178-1.946.538-2.81a6.475 6.475 0 0 1 1.507-2.228 6.996 6.996 0 0 1 2.299-1.46c.887-.351 1.851-.527 2.891-.527s2.029.172 2.916.512a6.806 6.806 0 0 1 2.299 1.443 6.507 6.507 0 0 1 1.504 2.215c.36.855.538 1.805.538 2.849 0 1.043-.178 1.94-.538 2.794a6.742 6.742 0 0 1 -1.504 2.228 6.874 6.874 0 0 1 -2.299 1.472c-.887.352-1.86.528-2.916.528l-.003.01zm0-2.62c.642 0 1.224-.113 1.752-.337a4.259 4.259 0 0 0 1.364-.918 4.1 4.1 0 0 0 .897-1.393c.213-.54.321-1.126.321-1.754 0-1.315-.397-2.378-1.189-3.188s-1.842-1.216-3.142-1.216c-.624 0-1.199.109-1.727.323a3.933 3.933 0 0 0 -1.364.919 4.247 4.247 0 0 0 -.897 1.392 4.713 4.713 0 0 0 -.321 1.77c0 .65.108 1.216.321 1.754.213.541.512 1.005.897 1.392.385.388.839.695 1.364.92.525.223 1.1.335 1.727.335h-.003zm26.821-11.424c1.52 0 2.731.506 3.634 1.514.904 1.008 1.355 2.394 1.355 4.16v8.105h-2.843v-7.618c0-1.133-.245-1.994-.738-2.58-.493-.585-1.192-.876-2.105-.876-1.164 0-2.048.355-2.655 1.065-.608.711-.913 1.636-.913 2.769v7.237h-2.843v-7.618c0-1.133-.242-1.994-.725-2.58-.483-.585-1.18-.877-2.093-.877-1.179 0-2.07.356-2.671 1.066s-.9 1.636-.9 2.769v7.237h-2.843v-13.504h2.764v2.35c.928-1.748 2.378-2.622 4.347-2.622 1.037 0 1.924.23 2.655.688.735.458 1.298 1.159 1.692 2.093.519-.973 1.193-1.68 2.026-2.119.833-.441 1.784-.662 2.859-.662zm22.06.272v13.504h-2.764v-2.186a5.154 5.154 0 0 1 -1.933 1.824c-.789.422-1.692.634-2.709.634-.967 0-1.848-.173-2.643-.512a5.925 5.925 0 0 1 -2.054-1.444 6.665 6.665 0 0 1 -1.342-2.227c-.322-.865-.484-1.809-.484-2.836 0-1.028.162-1.969.484-2.823a6.583 6.583 0 0 1 1.354-2.215 6.247 6.247 0 0 1 2.08-1.46c.805-.352 1.692-.528 2.655-.528 1.021 0 1.918.211 2.697.628a4.954 4.954 0 0 1 1.892 1.805v-2.164zm-6.964 11.154c.607 0 1.163-.108 1.672-.326a3.916 3.916 0 0 0 1.323-.922c.375-.397.668-.86.884-1.395a4.73 4.73 0 0 0 .321-1.773c0-.65-.101-1.214-.308-1.748a4.253 4.253 0 0 0 -.868-1.396 3.917 3.917 0 0 0 -1.323-.921 4.206 4.206 0 0 0 -1.673-.327c-.607 0-1.132.109-1.631.327-.5.217-.932.524-1.298.921a4.16 4.16 0 0 0 -.842 1.396 4.98 4.98 0 0 0 -.293 1.747c0 .634.099 1.242.293 1.774.197.534.473.998.83 1.395.356.397.785.704 1.284.922a4.04 4.04 0 0 0 1.632.326zm-261.926 12.396v6.213h8.719v2.621h-8.72v8.13h-2.925v-19.582h12.587v2.622h-9.662v-.004zm18.609 17.232c-1.059 0-2.029-.175-2.916-.527a6.843 6.843 0 0 1 -2.286-1.46 6.68 6.68 0 0 1 -1.492-2.215c-.359-.854-.537-1.795-.537-2.823 0-1.027.178-1.946.537-2.81a6.533 6.533 0 0 1 1.508-2.227 6.993 6.993 0 0 1 2.299-1.46c.887-.352 1.851-.528 2.891-.528 1.039 0 2.028.173 2.916.512a6.813 6.813 0 0 1 2.299 1.444 6.52 6.52 0 0 1 1.504 2.214c.359.855.538 1.806.538 2.849s-.179 1.94-.538 2.794a6.757 6.757 0 0 1 -1.504 2.228 6.881 6.881 0 0 1 -2.299 1.472c-.888.352-1.861.528-2.916.528l-.004.01zm0-2.62c.643 0 1.225-.112 1.753-.337a4.271 4.271 0 0 0 1.364-.918c.385-.387.684-.852.897-1.392a4.75 4.75 0 0 0 .321-1.754c0-1.316-.398-2.379-1.19-3.188-.795-.81-1.841-1.216-3.141-1.216-.624 0-1.199.108-1.727.323a3.945 3.945 0 0 0 -1.365.918c-.384.397-.683.861-.896 1.393a4.714 4.714 0 0 0 -.321 1.77c0 .65.108 1.216.321 1.754.213.54.512 1.005.896 1.392.385.387.84.694 1.365.918.524.224 1.1.337 1.727.337zm16.651 2.592c-2.003 0-3.555-.531-4.655-1.594-1.101-1.063-1.651-2.557-1.651-4.484v-7.698h2.843v7.48c0 1.188.296 2.09.884 2.702.592.611 1.45.918 2.576.918s1.985-.307 2.576-.918c.592-.612.884-1.514.884-2.702v-7.48h2.846v7.698c0 1.927-.55 3.422-1.65 4.484-1.1 1.063-2.652 1.594-4.656 1.594zm10.17-13.747h2.764v2.24c.967-1.673 2.506-2.512 4.614-2.512 1.628 0 2.92.506 3.877 1.514s1.434 2.394 1.434 4.16v8.105h-2.843v-7.618c0-1.133-.267-1.994-.805-2.58-.537-.585-1.316-.876-2.334-.876-1.18 0-2.121.355-2.817 1.066-.697.71-1.047 1.635-1.047 2.768v7.237h-2.843zm29.788-6.615v20.122h-2.738v-2.24c-.502.81-1.144 1.43-1.933 1.862s-1.698.65-2.738.65c-.967 0-1.848-.173-2.643-.512a5.968 5.968 0 0 1 -2.054-1.444 6.665 6.665 0 0 1 -1.342-2.227c-.321-.864-.484-1.809-.484-2.836s.166-1.968.496-2.823a6.777 6.777 0 0 1 1.368-2.215 6.247 6.247 0 0 1 2.08-1.46 6.488 6.488 0 0 1 2.63-.527c1.001 0 1.879.201 2.63.601.75.4 1.377.967 1.879 1.697v-8.645h2.846l.003-.004zm-6.935 17.77c.588 0 1.138-.11 1.644-.327a3.929 3.929 0 0 0 1.323-.922 4.43 4.43 0 0 0 .884-1.395 4.73 4.73 0 0 0 .321-1.773c0-.65-.102-1.213-.309-1.748a4.236 4.236 0 0 0 -.868-1.395 3.946 3.946 0 0 0 -1.323-.922 4.2 4.2 0 0 0 -1.672-.327 4.015 4.015 0 0 0 -2.929 1.22c-.366.38-.646.838-.843 1.382a5.204 5.204 0 0 0 -.293 1.79c0 .65.099 1.242.293 1.773.197.534.474.998.83 1.395s.786.704 1.285.922a4.104 4.104 0 0 0 1.657.327zm24.296-11.155v13.505h-2.764v-2.186a5.162 5.162 0 0 1 -1.933 1.824c-.789.423-1.692.634-2.71.634-.967 0-1.847-.173-2.643-.512a5.976 5.976 0 0 1 -2.054-1.444 6.682 6.682 0 0 1 -1.342-2.227c-.321-.865-.483-1.809-.483-2.836 0-1.028.162-1.969.483-2.823a6.584 6.584 0 0 1 1.355-2.215 6.247 6.247 0 0 1 2.08-1.46c.804-.352 1.691-.528 2.655-.528 1.021 0 1.918.212 2.697.628a4.954 4.954 0 0 1 1.892 1.805v-2.164h2.767zm-6.965 11.155c.608 0 1.164-.11 1.673-.327a3.917 3.917 0 0 0 1.323-.922c.375-.397.668-.86.884-1.395a4.73 4.73 0 0 0 .321-1.773c0-.65-.102-1.213-.308-1.748a4.238 4.238 0 0 0 -.869-1.395 3.922 3.922 0 0 0 -1.322-.922 4.208 4.208 0 0 0 -1.673-.327c-.608 0-1.132.11-1.632.327a3.823 3.823 0 0 0 -1.297.922c-.366.396-.646.86-.843 1.395a5.003 5.003 0 0 0 -.292 1.748c0 .633.098 1.242.292 1.773.197.534.474.998.83 1.395s.786.704 1.285.922a4.035 4.035 0 0 0 1.631.327zm20.381 1.837a5.149 5.149 0 0 1 -.938.377c-.34.11-.728.202-1.167.285a8.67 8.67 0 0 1 -1.542.122c-1.628 0-2.84-.41-3.635-1.23-.798-.819-1.196-2.083-1.196-3.795v-6.238h-2.496v-2.513h2.496v-3.754h2.843v3.754h4.885v2.513h-4.885v6.049c0 .973.169 1.648.509 2.026s.938.576 1.797.595c.375 0 .709-.035 1.005-.108.296-.07.55-.154.763-.244a2.83 2.83 0 0 0 .646-.352l.912 2.513zm3.922-15.45c-.538 0-.98-.17-1.33-.512-.35-.343-.521-.784-.521-1.325s.175-.96.521-1.31c.35-.351.792-.527 1.33-.527.537 0 .976.173 1.316.512.34.342.509.784.509 1.322 0 .537-.175.96-.522 1.309a1.764 1.764 0 0 1 -1.3.528zm-1.422 2.458h2.843v13.505h-2.843zm13.535 13.775c-1.059 0-2.029-.175-2.917-.527a6.843 6.843 0 0 1 -2.286-1.46 6.68 6.68 0 0 1 -1.492-2.215c-.359-.854-.537-1.795-.537-2.823 0-1.027.178-1.946.537-2.81a6.533 6.533 0 0 1 1.508-2.227 6.993 6.993 0 0 1 2.299-1.46c.887-.352 1.851-.528 2.891-.528s2.029.173 2.916.512a6.803 6.803 0 0 1 2.299 1.444 6.505 6.505 0 0 1 1.504 2.214c.36.855.538 1.806.538 2.849s-.182 1.94-.538 2.794a6.697 6.697 0 0 1 -1.504 2.228 6.871 6.871 0 0 1 -2.299 1.472c-.887.352-1.86.528-2.916.528l-.003.01zm0-2.62c.642 0 1.224-.112 1.752-.337a4.26 4.26 0 0 0 1.364-.918c.385-.387.684-.852.897-1.392a4.75 4.75 0 0 0 .321-1.754c0-1.316-.397-2.379-1.189-3.188-.795-.81-1.842-1.216-3.145-1.216-.624 0-1.199.108-1.727.323a3.932 3.932 0 0 0 -1.364.918c-.385.397-.684.861-.897 1.393a4.714 4.714 0 0 0 -.321 1.77c0 .65.108 1.216.321 1.754a4.087 4.087 0 0 0 2.261 2.31c.524.224 1.1.337 1.727.337zm10.481-11.155h2.764v2.24c.967-1.673 2.506-2.512 4.617-2.512 1.628 0 2.92.506 3.877 1.514s1.434 2.394 1.434 4.16v8.105h-2.843v-7.618c0-1.133-.267-1.994-.805-2.58-.537-.585-1.316-.876-2.334-.876-1.18 0-2.121.355-2.817 1.066-.697.71-1.047 1.635-1.047 2.768v7.237h-2.843v-13.504zm17.306-3.293c.417 0 .802.07 1.155.214s.658.343.919.596c.257.252.461.553.607.902s.22.73.22 1.14-.074.79-.22 1.139-.35.653-.607.909a2.814 2.814 0 0 1 -.919.605c-.353.147-.738.22-1.155.22a2.97 2.97 0 0 1 -1.154-.22 2.88 2.88 0 0 1 -.922-.605 2.712 2.712 0 0 1 -.611-.909 2.926 2.926 0 0 1 -.219-1.14c0-.41.073-.777.219-1.123a2.75 2.75 0 0 1 .611-.902 2.88 2.88 0 0 1 .922-.605 2.97 2.97 0 0 1 1.154-.221zm0 5.162c.337 0 .649-.057.935-.172.286-.116.535-.276.741-.48.207-.205.372-.452.49-.737a2.39 2.39 0 0 0 .178-.925c0-.332-.06-.65-.178-.928a2.155 2.155 0 0 0 -.49-.723 2.246 2.246 0 0 0 -.741-.474 2.48 2.48 0 0 0 -.935-.173c-.337 0-.648.058-.935.173a2.309 2.309 0 0 0 -.741.474 2.226 2.226 0 0 0 -.489.723 2.382 2.382 0 0 0 -.178.928 2.324 2.324 0 0 0 .667 1.662c.207.204.455.364.741.48.287.115.598.172.935.172zm1.438-2.883c0 .243-.061.454-.182.63-.12.176-.289.31-.505.407l.763 1.21h-.944l-.592-1.07h-.429v1.07h-.837v-3.448h1.342c.436 0 .776.11 1.021.324.242.214.366.508.366.873zm-1.889.432h.515a.603.603 0 0 0 .385-.112.394.394 0 0 0 .14-.32c0-.288-.175-.433-.525-.433h-.515z"/></g></svg>