<?xml version="1.0" encoding="UTF-8"?>
<svg id="Livello_1" xmlns="http://www.w3.org/2000/svg" version="1.1" viewBox="0 0 210 55">
  <!-- Generator: Adobe Illustrator 29.6.1, SVG Export Plug-In . SVG Version: 2.1.1 Build 9)  -->
  <defs>
    <style>
      .st0 {
        fill: none;
      }

      .st1 {
        fill: #7d8232;
      }

      .st2 {
        fill: #6e1e50;
      }

      .st3 {
        fill: #32502d;
      }

      .st4 {
        fill: #808940;
      }

      .st5 {
        fill: #1e325f;
      }
    </style>
  </defs>
  <path class="st4" d="M114.18,54.41s-.02,0-.05-.01c-.24,0-.49.01-.74.01h.79Z"/>
  <path class="st0" d="M113.28,8.41c-4.34,0-5.73,1.88-5.73,5.8v26.52c0,3.91,1.39,5.8,5.73,5.8s5.73-1.88,5.73-5.8V14.21c0-3.91-1.39-5.8-5.73-5.8Z"/>
  <path class="st2" d="M55.73,35.77c-4.13-10.19-19.33-14.44-19.33-22.16,0-3.27,1.78-5.15,5.01-5.15,2.26,0,4.82,2.01,6.76,5.81h7.56V.62h-13.35c-9.85,0-15.51,4.72-15.51,13.07,0,15.03,20.36,17.78,20.36,28.16,0,3.12-2.34,4.79-5.82,4.79-1.86,0-3.46-.87-4.27-2.61-.06-.01-10.5,0-10.5,0,1.44,6.47,6.92,10.38,14.36,10.38,4.27,0,15.68-.02,15.68-.02h-.94v-18.62Z"/>
  <path class="st3" d="M26.64,44.04h-15.94v-13.46h15.28v-8.05h-15.28v-11.53h16.39c1.11-6.63,6.49-10.34,15.15-10.38H0v53.8h40.65,0c-7.26-.13-12.59-4.01-14.01-10.38Z"/>
  <path class="st5" d="M113.28.59c-.1,0-.19,0-.28,0-11.08.1-16.2,6.07-16.2,13.4v26.95c0,7.39,5.21,13.46,16.49,13.46.25,0,.49,0,.74-.01,10.77-.26,15.75-6.23,15.75-13.45V13.99c0-7.39-5.21-13.41-16.49-13.41ZM119.01,40.73c0,3.91-1.38,5.8-5.73,5.8s-5.73-1.88-5.73-5.8V14.21c0-3.91,1.39-5.8,5.73-5.8s5.73,1.88,5.73,5.8v26.52Z"/>
  <path class="st1" d="M113.28,54.41c-11.28,0-16.49-6.07-16.49-13.46V13.99c0-7.33,5.12-13.3,16.2-13.4h-28.36l-7.72,24.33h-.15L69.06.62h-13.33v53.77h10.38v-29.46h.15l11.11,29.46,10.05-29.46h.15v29.49h25.71Z"/>
</svg>